<?xml version="1.0" encoding="UTF-8" standalone="no"?>
<!-- Created with Inkscape (http://www.inkscape.org/) -->

<svg
   xmlns:dc="http://purl.org/dc/elements/1.1/"
   xmlns:cc="http://creativecommons.org/ns#"
   xmlns:rdf="http://www.w3.org/1999/02/22-rdf-syntax-ns#"
   xmlns:svg="http://www.w3.org/2000/svg"
   xmlns="http://www.w3.org/2000/svg"
   xmlns:sodipodi="http://sodipodi.sourceforge.net/DTD/sodipodi-0.dtd"
   xmlns:inkscape="http://www.inkscape.org/namespaces/inkscape"
   width="250"
   height="250"
   viewBox="0 0 250 250"
   id="svg2"
   version="1.1"
   inkscape:version="0.91 r13725"
   sodipodi:docname="logo.svg">
  <defs
     id="defs4" />
  <sodipodi:namedview
     id="base"
     pagecolor="#ffffff"
     bordercolor="#666666"
     borderopacity="1.0"
     inkscape:pageopacity="0.0"
     inkscape:pageshadow="2"
     inkscape:zoom="1.4"
     inkscape:cx="131.16832"
     inkscape:cy="242.24251"
     inkscape:document-units="px"
     inkscape:current-layer="layer1"
     showgrid="false"
     inkscape:window-width="1920"
     inkscape:window-height="1017"
     inkscape:window-x="0"
     inkscape:window-y="30"
     inkscape:window-maximized="1"
     units="px" />
  <metadata
     id="metadata7">
    <rdf:RDF>
      <cc:Work
         rdf:about="">
        <dc:format>image/svg+xml</dc:format>
        <dc:type
           rdf:resource="http://purl.org/dc/dcmitype/StillImage" />
        <dc:title></dc:title>
      </cc:Work>
    </rdf:RDF>
  </metadata>
  <g
     inkscape:label="Layer 1"
     inkscape:groupmode="layer"
     id="layer1"
     transform="translate(0,-802.36201)">
    <g
       id="g4206"
       transform="translate(10.704429,-5.711495)">
      <path
         d="m 14.363933,833.95311 10.10742,66.1377 9.71192,0 10.06347,-66.1377 -9.44824,0 -4.83398,36.34278 -0.35157,2.8125 -0.57129,0 -0.35156,-2.8125 -4.87793,-36.34278 -9.44824,0 z"
         style="font-style:normal;font-variant:normal;font-weight:normal;font-stretch:normal;font-size:90px;line-height:73.00000191%;font-family:'League Gothic';-inkscape-font-specification:'League Gothic';letter-spacing:0px;word-spacing:0px;fill:#41b883;fill-opacity:1;stroke:none;stroke-width:1px;stroke-linecap:butt;stroke-linejoin:miter;stroke-opacity:1"
         id="path4145"
         inkscape:connector-curvature="0" />
      <path
         d="m 48.553383,886.51171 q 0.13184,4.1748 1.62598,7.20703 1.31836,2.94433 3.7793,4.83398 2.76855,2.24121 7.55859,2.24121 4.70215,0 7.4707,-2.24121 2.59278,-1.97754 3.86719,-4.83398 1.49414,-3.03223 1.62598,-7.20703 l 0,-52.5586 -9.71192,0 0,52.5586 q 0,1.49414 -0.3955,2.41699 -0.61524,2.41699 -2.85645,2.41699 -1.18652,0 -1.88965,-0.70312 -1.3623,-1.58203 -1.3623,-4.13086 l 0,-52.5586 -9.71192,0 0,52.5586 z"
         style="font-style:normal;font-variant:normal;font-weight:normal;font-stretch:normal;font-size:90px;line-height:73.00000191%;font-family:'League Gothic';-inkscape-font-specification:'League Gothic';letter-spacing:0px;word-spacing:0px;fill:#41b883;fill-opacity:1;stroke:none;stroke-width:1px;stroke-linecap:butt;stroke-linejoin:miter;stroke-opacity:1"
         id="path4147"
         inkscape:connector-curvature="0" />
      <path
         d="m 81.512373,900.09081 22.236327,0 0,-9.97559 -12.524417,0 0,-18.19336 9.008787,0 0,-10.63476 -9.008787,0 0,-17.3584 12.524417,0 0,-9.97559 -22.236327,0 0,66.1377 z"
         style="font-style:normal;font-variant:normal;font-weight:normal;font-stretch:normal;font-size:90px;line-height:73.00000191%;font-family:'League Gothic';-inkscape-font-specification:'League Gothic';letter-spacing:0px;word-spacing:0px;fill:#41b883;fill-opacity:1;stroke:none;stroke-width:1px;stroke-linecap:butt;stroke-linejoin:miter;stroke-opacity:1"
         id="path4149"
         inkscape:connector-curvature="0" />
      <path
         d="m 17.176433,1031.4908 11.95313,0 q 8.26171,-0.3955 11.90917,-5.9326 3.12012,-4.79 3.12012,-12.7881 0,-5.0098 -1.05469,-8.0859 -2.10937,-6.10843 -5.66894,-8.12991 3.38379,-3.12012 4.74609,-6.02051 1.27442,-2.72461 1.27442,-7.64648 0,-9.49219 -4.48242,-13.667 -4.17481,-3.86718 -13.27149,-3.86718 l -8.52539,0 0,66.13768 z m 9.71191,-9.624 0,-20.3467 q 2.90039,0 4.30664,1.0107 2.9004,2.1094 2.9004,9.1407 0,7.0752 -2.9004,9.1845 -1.40625,1.0108 -4.30664,1.0108 z m 0,-29.26759 0,-17.62207 q 2.85645,0 4.30664,0.9668 2.9004,1.97754 2.9004,7.86621 0,5.84472 -2.9004,7.82226 -1.45019,0.9668 -4.30664,0.9668 z"
         style="font-style:normal;font-variant:normal;font-weight:normal;font-stretch:normal;font-size:90px;line-height:73.00000191%;font-family:'League Gothic';-inkscape-font-specification:'League Gothic';letter-spacing:0px;word-spacing:0px;fill:#41b883;fill-opacity:1;stroke:none;stroke-width:1px;stroke-linecap:butt;stroke-linejoin:miter;stroke-opacity:1"
         id="path4159"
         inkscape:connector-curvature="0" />
      <path
         d="m 49.783853,1017.9117 q 0.13184,4.1748 1.62598,7.207 1.31836,2.9444 3.7793,4.834 2.76855,2.2412 7.55859,2.2412 4.70215,0 7.4707,-2.2412 2.59278,-1.9775 3.86719,-4.834 1.49414,-3.0322 1.62598,-7.207 l 0,-52.55858 -9.71192,0 0,52.55858 q 0,1.4941 -0.39551,2.417 -0.61523,2.417 -2.85644,2.417 -1.18652,0 -1.88965,-0.7031 -1.3623,-1.5821 -1.3623,-4.1309 l 0,-52.55858 -9.71192,0 0,52.55858 z"
         style="font-style:normal;font-variant:normal;font-weight:normal;font-stretch:normal;font-size:90px;line-height:73.00000191%;font-family:'League Gothic';-inkscape-font-specification:'League Gothic';letter-spacing:0px;word-spacing:0px;fill:#41b883;fill-opacity:1;stroke:none;stroke-width:1px;stroke-linecap:butt;stroke-linejoin:miter;stroke-opacity:1"
         id="path4161"
         inkscape:connector-curvature="0" />
      <path
         d="m 82.742843,1031.4908 9.71191,0 0,-66.13768 -9.71191,0 0,66.13768 z"
         style="font-style:normal;font-variant:normal;font-weight:normal;font-stretch:normal;font-size:90px;line-height:73.00000191%;font-family:'League Gothic';-inkscape-font-specification:'League Gothic';letter-spacing:0px;word-spacing:0px;fill:#41b883;fill-opacity:1;stroke:none;stroke-width:1px;stroke-linecap:butt;stroke-linejoin:miter;stroke-opacity:1"
         id="path4163"
         inkscape:connector-curvature="0" />
      <path
         d="m 99.617843,1031.4908 22.587887,0 0,-9.0088 -12.87598,0 0,-57.12888 -9.711907,0 0,66.13768 z"
         style="font-style:normal;font-variant:normal;font-weight:normal;font-stretch:normal;font-size:90px;line-height:73.00000191%;font-family:'League Gothic';-inkscape-font-specification:'League Gothic';letter-spacing:0px;word-spacing:0px;fill:#41b883;fill-opacity:1;stroke:none;stroke-width:1px;stroke-linecap:butt;stroke-linejoin:miter;stroke-opacity:1"
         id="path4165"
         inkscape:connector-curvature="0" />
      <path
         d="m 126.16081,1031.4908 7.64648,0 q 6.85547,0 10.67871,-1.5381 3.86719,-1.582 5.80078,-5.3174 1.75781,-3.5156 2.28516,-9.4482 0.57129,-5.9326 0.57129,-16.74316 0,-10.8545 -0.57129,-16.78711 -0.52735,-5.97656 -2.28516,-9.49219 -1.93359,-3.73535 -5.75683,-5.27344 -3.82325,-1.53808 -10.72266,-1.53808 l -7.64648,0 0,66.13768 z m 9.71191,-9.7119 0,-46.71387 q 2.76855,0 4.13086,0.65918 1.3623,0.65918 2.06543,2.85645 0.79101,2.98828 0.92285,7.03125 0.0879,3.16406 0.0879,12.74414 0,9.62405 -0.0879,12.78805 -0.13184,4.2188 -0.92285,7.0313 -0.70313,2.2851 -2.06543,2.9443 -1.36231,0.6592 -4.13086,0.6592 z"
         style="font-style:normal;font-variant:normal;font-weight:normal;font-stretch:normal;font-size:90px;line-height:73.00000191%;font-family:'League Gothic';-inkscape-font-specification:'League Gothic';letter-spacing:0px;word-spacing:0px;fill:#41b883;fill-opacity:1;stroke:none;stroke-width:1px;stroke-linecap:butt;stroke-linejoin:miter;stroke-opacity:1"
         id="path4167"
         inkscape:connector-curvature="0" />
      <path
         d="m 159.55924,1031.4908 22.23633,0 0,-9.9756 -12.52441,0 0,-18.1933 9.00879,0 0,-10.6348 -9.00879,0 0,-17.3584 12.52441,0 0,-9.97558 -22.23633,0 0,66.13768 z"
         style="font-style:normal;font-variant:normal;font-weight:normal;font-stretch:normal;font-size:90px;line-height:73.00000191%;font-family:'League Gothic';-inkscape-font-specification:'League Gothic';letter-spacing:0px;word-spacing:0px;fill:#41b883;fill-opacity:1;stroke:none;stroke-width:1px;stroke-linecap:butt;stroke-linejoin:miter;stroke-opacity:1"
         id="path4169"
         inkscape:connector-curvature="0" />
      <path
         d="m 187.1569,1031.4908 9.71191,0 0,-27.9053 2.59278,0 5.05371,27.9053 9.71191,0 -6.19629,-32.03612 q 2.68067,-1.80176 4.04297,-5.80078 1.36231,-4.04297 1.36231,-9.22852 0,-9.53613 -3.99903,-14.28222 -3.99902,-4.79004 -12.56836,-4.79004 l -9.71191,0 0,66.13768 z m 9.71191,-36.91405 0,-19.59961 q 3.07617,0 4.61426,1.3623 2.59277,2.28516 2.59277,8.4375 0,6.1084 -2.59277,8.39356 -1.58203,1.40625 -4.61426,1.40625 z"
         style="font-style:normal;font-variant:normal;font-weight:normal;font-stretch:normal;font-size:90px;line-height:73.00000191%;font-family:'League Gothic';-inkscape-font-specification:'League Gothic';letter-spacing:0px;word-spacing:0px;fill:#41b883;fill-opacity:1;stroke:none;stroke-width:1px;stroke-linecap:butt;stroke-linejoin:miter;stroke-opacity:1"
         id="path4171"
         inkscape:connector-curvature="0" />
      <path
         d="m 17.176433,965.79081 9.71191,0 0,-28.78418 9.00879,0 0,-10.01953 -9.00879,0 0,-17.3584 13.40332,0 0,-9.97558 -23.11523,0 0,66.13769 z"
         style="font-style:normal;font-variant:normal;font-weight:normal;font-stretch:normal;font-size:90px;line-height:73.00000191%;font-family:'League Gothic';-inkscape-font-specification:'League Gothic';letter-spacing:0px;word-spacing:0px;fill:#35495e;fill-opacity:1;stroke:none;stroke-width:1px;stroke-linecap:butt;stroke-linejoin:miter;stroke-opacity:1"
         id="path4151"
         inkscape:connector-curvature="0" />
      <path
         d="m 43.631513,952.21171 q 0.13183,4.26269 1.58203,7.20703 1.31836,2.94434 3.7793,4.83398 2.76855,2.24122 7.55859,2.24122 4.70215,0 7.4707,-2.24122 2.68067,-2.02148 3.91114,-4.83398 1.45019,-2.94434 1.58203,-7.20703 l 0,-38.97949 q -0.13184,-4.17481 -1.58203,-7.11914 -1.27442,-2.94434 -3.91114,-4.92188 -3.03222,-2.28516 -7.4707,-2.28516 -4.52637,0 -7.55859,2.28516 -2.417,1.8457 -3.7793,4.92188 -1.4502,2.94433 -1.58203,7.11914 l 0,38.97949 z m 9.71191,0 0,-38.97949 q 0,-1.49414 0.35156,-2.417 0.74708,-2.46093 2.85645,-2.46093 1.27441,0 2.02148,0.74707 1.23047,1.53808 1.23047,4.13086 l 0,38.97949 q 0,1.58203 -0.35156,2.41699 -0.61523,2.41699 -2.90039,2.41699 -1.18652,0 -1.88965,-0.70312 -1.31836,-1.53809 -1.31836,-4.13086 z"
         style="font-style:normal;font-variant:normal;font-weight:normal;font-stretch:normal;font-size:90px;line-height:73.00000191%;font-family:'League Gothic';-inkscape-font-specification:'League Gothic';letter-spacing:0px;word-spacing:0px;fill:#35495e;fill-opacity:1;stroke:none;stroke-width:1px;stroke-linecap:butt;stroke-linejoin:miter;stroke-opacity:1"
         id="path4153"
         inkscape:connector-curvature="0" />
      <path
         d="m 76.063153,965.79081 9.71191,0 0,-27.90527 2.59278,0 5.05371,27.90527 9.711907,0 -6.196287,-32.03613 q 2.68067,-1.80176 4.042967,-5.80078 1.36231,-4.04297 1.36231,-9.22852 0,-9.53613 -3.999027,-14.28223 -3.99902,-4.79003 -12.56836,-4.79003 l -9.71191,0 0,66.13769 z m 9.71191,-36.91406 0,-19.59961 q 3.07617,0 4.61426,1.3623 2.59277,2.28516 2.59277,8.4375 0,6.1084 -2.59277,8.39356 -1.58203,1.40625 -4.61426,1.40625 z"
         style="font-style:normal;font-variant:normal;font-weight:normal;font-stretch:normal;font-size:90px;line-height:73.00000191%;font-family:'League Gothic';-inkscape-font-specification:'League Gothic';letter-spacing:0px;word-spacing:0px;fill:#35495e;fill-opacity:1;stroke:none;stroke-width:1px;stroke-linecap:butt;stroke-linejoin:miter;stroke-opacity:1"
         id="path4155"
         inkscape:connector-curvature="0" />
      <path
         d="m 108.58268,965.79081 9.00879,0 0,-44.38477 0.52734,0 0.35157,2.8125 6.24023,41.57227 4.13086,0 6.19629,-41.57227 0.35156,-2.8125 0.57129,0 0,44.38477 8.96484,0 0,-66.13769 -11.86523,0 -5.75684,30.23437 -0.43945,3.51563 -0.17578,0 -0.4834,-3.51563 -5.75684,-30.23437 -11.86523,0 0,66.13769 z"
         style="font-style:normal;font-variant:normal;font-weight:normal;font-stretch:normal;font-size:90px;line-height:73.00000191%;font-family:'League Gothic';-inkscape-font-specification:'League Gothic';letter-spacing:0px;word-spacing:0px;fill:#35495e;fill-opacity:1;stroke:none;stroke-width:1px;stroke-linecap:butt;stroke-linejoin:miter;stroke-opacity:1"
         id="path4157"
         inkscape:connector-curvature="0" />
    </g>
  </g>
</svg>
